<?xml version="1.0" standalone="no"?>
<!DOCTYPE svg PUBLIC "-//W3C//DTD SVG 20010904//EN"
 "http://www.w3.org/TR/2001/REC-SVG-20010904/DTD/svg10.dtd">
<svg version="1.0" xmlns="http://www.w3.org/2000/svg"
 width="252.000000pt" height="252.000000pt" viewBox="0 0 252.000000 252.000000"
 preserveAspectRatio="xMidYMid meet">
<metadata>
Created by potrace 1.11, written by Peter Selinger 2001-2013
</metadata>
<g transform="translate(0.000000,252.000000) scale(0.100000,-0.100000)"
fill="#000000" stroke="none">
<path d="M689 2250 c0 -25 0 -189 0 -365 0 -465 -15 -429 345 -809 83 -87 154
-163 157 -168 4 -6 11 -8 16 -5 4 3 8 191 8 421 l0 416 -41 42 c-23 24 -79 84
-126 133 -47 50 -127 134 -179 188 -52 55 -113 120 -136 145 l-43 47 -1 -45z"/>
<path d="M1768 2244 c-24 -26 -54 -59 -68 -73 -14 -14 -83 -89 -155 -166 -71
-77 -156 -167 -187 -200 -32 -33 -58 -69 -59 -80 -4 -95 0 -817 5 -822 4 -4
25 13 47 37 49 54 222 239 276 295 66 70 110 128 138 184 47 94 53 155 53 529
0 188 -2 342 -3 342 -2 0 -23 -21 -47 -46z"/>
<path d="M4 1361 c-2 -3 44 -54 103 -115 60 -61 144 -150 188 -197 478 -512
674 -705 784 -774 60 -37 123 -58 131 -44 4 6 8 129 9 275 l1 263 -33 38 c-17
21 -117 124 -222 229 -202 203 -304 281 -402 310 -39 11 -113 16 -303 17 -139
1 -254 0 -256 -2z"/>
<path d="M2008 1359 c-100 -15 -208 -82 -353 -219 -120 -114 -326 -332 -341
-362 -15 -29 -17 -64 -16 -288 2 -140 6 -258 11 -263 17 -17 137 47 225 119
73 61 350 341 561 568 61 65 125 134 144 154 19 21 88 92 154 160 66 67 117
125 114 128 -8 9 -444 10 -499 3z"/>
</g>
</svg>
